<svg xmlns="http://www.w3.org/2000/svg" width="512" height="512" viewBox="0 0 512 512">
  <defs>
    <linearGradient id="bg" x1="0" y1="0" x2="0" y2="1">
      <stop offset="0" stop-color="#18395a"/>
      <stop offset="0.55" stop-color="#081421"/>
      <stop offset="1" stop-color="#040a12"/>
    </linearGradient>
    <linearGradient id="card" x1="0" y1="0" x2="0" y2="1">
      <stop offset="0" stop-color="#c4ee5f"/>
      <stop offset="1" stop-color="#8fc22e"/>
    </linearGradient>
    <radialGradient id="apple" cx="0.4" cy="0.35" r="0.8">
      <stop offset="0" stop-color="#ff8aa3"/>
      <stop offset="1" stop-color="#e8324f"/>
    </radialGradient>
  </defs>
  <rect width="512" height="512" rx="112" fill="url(#bg)"/>
  <!-- card -->
  <g transform="rotate(-8 256 256)">
    <rect x="146" y="118" width="220" height="288" rx="30" fill="url(#card)" stroke="#07111f" stroke-width="10"/>
    <rect x="170" y="150" width="172" height="150" rx="16" fill="#f7f2e7"/>
    <!-- apple -->
    <path d="M256 192c-30 0-54 20-54 52 0 36 30 60 54 60s54-24 54-60c0-32-24-52-54-52z" fill="url(#apple)"/>
    <path d="M256 192c4-16 16-26 30-26-2 16-12 26-30 26z" fill="#7ad06a"/>
    <rect x="248" y="168" width="8" height="28" rx="4" fill="#6b4a2a"/>
    <!-- stat pips -->
    <circle cx="196" cy="344" r="13" fill="#07111f"/>
    <circle cx="256" cy="344" r="13" fill="#07111f"/>
    <circle cx="316" cy="344" r="13" fill="#07111f"/>
    <rect x="178" y="372" width="156" height="16" rx="8" fill="#07111f" opacity="0.55"/>
  </g>
</svg>
